# xmcd
#
# Track frame offsets: 
#        150
#        22353
#        35870
#        59653
#        78210
#        95513
#        107083
#        125773
#        135050
#        147130
#        179153
#        217438
#        253198
#
# Disc length: 3872 seconds
#
# Revision: 3
# Processed by: cddbd v1.5.2PL0 Copyright (c) Steve Scherf et al.
# Submitted via: ExactAudioCopyFreeDBPlugin 1.0
#
DISCID=d00f1e0d
DTITLE=Santana - Gold
DYEAR=1993
DGENRE=Rock
TTITLE0=Soul Sacrifice (Santana)
TTITLE1=Jingo (Short Version) (Santana)
TTITLE2=Persuasion (Santana)
TTITLE3=With A Little Help From My Friends (Curcio)
TTITLE4=As The Years Go By (Santana)
TTITLE5=Fried Neckbones And Some Home Fries (Lastie, Correa)
TTITLE6=La Puesta Del Sol (Weiss)
TTITLE7=Let's Get Ourselves Together (Santana)
TTITLE8=Latin Tropical (Short Version) (Santana)
TTITLE9=Every Day I Have The Blues (Chatman)
TTITLE10=Jam In E (Curcio)
TTITLE11=Jam In G Minor (Curcio)
TTITLE12=Jammin' Home (Curcio)
EXTD=
EXTT0=
EXTT1=
EXTT2=
EXTT3=
EXTT4=
EXTT5=
EXTT6=
EXTT7=
EXTT8=
EXTT9=
EXTT10=
EXTT11=
EXTT12=
PLAYORDER=
